# xmcd
#
# Track frame offsets:
#	150
#	15900
#	32850
#	38550
#	52200
#	68400
#	85200
#	112350
#	133575
#	155325
#	171000
#
# Disc length: 2500 seconds
#
# Revision: 0
# Processed by: cddbd v1.5.1PL2 Copyright (c) Steve Scherf et al.
# Submitted via: EasyCDDAExtractor 8.0.2.1
#
DISCID=8909c20b
DTITLE=Alice Cooper - Metaltown Frihamnen Gothenburg 19-06-04 Disc 2
DYEAR=2004
DGENRE=Hard Rock
TTITLE0=Sick Things
TTITLE1=Gutter Cats Vs The Jets
TTITLE2=Backyard Brawl
TTITLE3=Cold Ethyl
TTITLE4=Only Women Bleed
TTITLE5=Ballad Of Dwight Fry
TTITLE6=School's Out
TTITLE7=Brutal Planet (Incl Wicked Young Man)
TTITLE8=Poison
TTITLE9=Presentation Of The Band
TTITLE10=Under My Wheels
EXTD=
EXTT0=
EXTT1=
EXTT2=
EXTT3=
EXTT4=
EXTT5=
EXTT6=
EXTT7=
EXTT8=
EXTT9=
EXTT10=
PLAYORDER=
